<svg width="295" height="295" viewBox="0 0 295 295" fill="none" xmlns="http://www.w3.org/2000/svg">
<mask id="mask0_1_285" style="mask-type:alpha" maskUnits="userSpaceOnUse" x="23" y="23" width="249" height="249">
<rect y="147.5" width="208.596" height="208.596" rx="56" transform="rotate(-45 0 147.5)" fill="#D9D9D9"/>
</mask>
<g mask="url(#mask0_1_285)">
<path d="M254.618 224.527L161.504 277.702C152.809 282.673 142.147 282.673 133.399 277.702L40.2854 224.527C31.4347 219.453 26 210.081 26 199.881V93.9977C26 83.8494 31.4347 74.426 40.2854 69.4036L133.399 16.2288C142.095 11.2582 152.757 11.2582 161.504 16.2288L254.618 69.4554C263.469 74.4778 268.904 83.9012 268.904 94.0494V199.933C268.904 210.081 263.469 219.453 254.618 224.527Z" fill="#D92F31"/>
<path d="M268.904 146.965V94.0494C268.904 83.9012 263.469 74.4778 254.618 69.4554L161.504 16.2288C152.809 11.2582 142.147 11.2582 133.399 16.2288L40.2854 69.4554C31.4347 74.4778 26 83.8494 26 94.0494V146.965H268.904Z" fill="#2259A0"/>
<path d="M268.904 106.838H26V187.092H268.904V106.838Z" fill="white"/>
<path d="M60.5233 235.97V186.73H42.1489V225.563L60.5233 235.97Z" fill="white"/>
<path d="M250.685 226.702V186.73H232.311V237.212L250.685 226.702Z" fill="white"/>
<path d="M212.642 248.396V186.73H194.268V258.959L212.642 248.396Z" fill="white"/>
<path d="M161.504 277.65L174.651 270.142V186.73H156.277V279.98C158.037 279.41 159.796 278.634 161.504 277.65Z" fill="white"/>
<path d="M133.399 277.65C134.434 278.22 135.521 278.737 136.608 279.203V186.73H118.234V268.952L133.399 277.65Z" fill="white"/>
<path d="M98.5658 257.716V186.73H80.1914V247.257L98.5658 257.716Z" fill="white"/>
<path d="M229.878 77.2219L233.397 84.3671L241.265 85.5062L235.571 91.0464L236.917 98.9164L229.878 95.1885L222.838 98.9164L224.184 91.0464L218.491 85.5062L226.358 84.3671L229.878 77.2219Z" fill="white"/>
<path d="M188.678 77.2219L192.198 84.3671L200.065 85.5062L194.372 91.0464L195.717 98.9164L188.678 95.1885L181.639 98.9164L182.985 91.0464L177.291 85.5062L185.159 84.3671L188.678 77.2219Z" fill="white"/>
<path d="M147.478 77.2219L150.997 84.3671L158.865 85.5062L153.171 91.0464L154.517 98.9164L147.478 95.1885L140.387 98.9164L141.733 91.0464L136.039 85.5062L143.906 84.3671L147.478 77.2219Z" fill="white"/>
<path d="M106.226 77.2219L109.745 84.3671L117.613 85.5062L111.919 91.0464L113.265 98.9164L106.226 95.1885L99.1866 98.9164L100.532 91.0464L94.8389 85.5062L102.706 84.3671L106.226 77.2219Z" fill="white"/>
<path d="M65.0261 77.2219L68.5457 84.3671L76.413 85.5062L70.7195 91.0464L72.0653 98.9164L65.0261 95.1885L57.9869 98.9164L59.3326 91.0464L53.6392 85.5062L61.5065 84.3671L65.0261 77.2219Z" fill="white"/>
<path d="M209.744 47.1395L213.263 54.2847L221.131 55.4238L215.437 60.964L216.783 68.834L209.744 65.1061L202.704 68.834L204.05 60.964L198.357 55.4238L206.224 54.2847L209.744 47.1395Z" fill="white"/>
<path d="M168.543 47.1395L172.063 54.2847L179.93 55.4238L174.237 60.964L175.583 68.834L168.543 65.1061L161.452 68.834L162.798 60.964L157.105 55.4238L164.972 54.2847L168.543 47.1395Z" fill="white"/>
<path d="M127.292 47.1395L130.811 54.2847L138.679 55.4238L132.985 60.964L134.331 68.834L127.292 65.1061L120.253 68.834L121.598 60.964L115.905 55.4238L123.772 54.2847L127.292 47.1395Z" fill="white"/>
<path d="M86.092 47.1395L89.6116 54.2847L97.4789 55.4238L91.7855 60.964L93.1312 68.834L86.092 65.1061L79.0528 68.834L80.3985 60.964L74.7051 55.4238L82.5724 54.2847L86.092 47.1395Z" fill="white"/>
<path d="M147.995 17.4713L151.515 24.6165L159.382 25.7556L153.689 31.2957L155.034 39.1658L147.995 35.4379L140.904 39.1658L142.25 31.2957L136.556 25.7556L144.424 24.6165L147.995 17.4713Z" fill="white"/>
<path d="M117.044 25.6003L100.429 35.0755L99.7046 39.1659L106.744 35.438L113.783 39.1659L112.437 31.2958L118.131 25.7557L117.044 25.6003Z" fill="white"/>
<path d="M178.067 25.704L177.809 25.7558L183.502 31.2959L182.156 39.166L189.196 35.438L196.235 39.166L195.665 35.7487L178.067 25.704Z" fill="white"/>
<path d="M31.9004 121.854H41.5275C44.8401 121.854 47.221 122.734 48.722 124.546C50.223 126.306 50.9994 129.051 50.9994 132.779V134.694C50.9994 137.128 50.6371 139.095 49.9642 140.649C49.2913 142.202 48.2562 143.289 46.8587 143.962V144.118C50.0159 145.36 51.6205 148.674 51.6205 154.007V158.097C51.6205 161.774 50.7923 164.57 49.1361 166.485C47.4798 168.401 45.0989 169.385 41.8898 169.385H31.9004V121.854ZM40.8029 141.166C42.0969 141.166 43.0285 140.804 43.7014 140.027C44.3225 139.251 44.633 137.956 44.633 136.144V133.503C44.633 131.795 44.3742 130.552 43.8567 129.776C43.3391 128.999 42.5109 128.636 41.3722 128.636H38.3185V141.166H40.8029ZM41.9416 162.499C43.0803 162.499 43.9084 162.136 44.426 161.463C44.9436 160.738 45.2541 159.547 45.2541 157.839V153.696C45.2541 151.522 44.9436 150.02 44.2707 149.192C43.6496 148.363 42.5627 147.949 41.1134 147.949H38.2667V162.499H41.9416Z" fill="#2259A0"/>
<path d="M60.3165 121.854H68.9602L75.5854 169.281H69.1673L68.0286 159.858V160.013H60.7824L59.6437 169.281H53.6914L60.3165 121.854ZM67.2522 153.593L64.4055 130.138H64.3019L61.507 153.593H67.2522Z" fill="#2259A0"/>
<path d="M79.7256 166.9C78.1211 164.829 77.3447 161.877 77.3447 158.046V155.353H83.4005V158.615C83.4005 161.67 84.4874 163.223 86.7131 163.223C87.8 163.223 88.6281 162.861 89.1975 162.084C89.7668 161.36 90.0256 160.117 90.0256 158.46C90.0256 156.492 89.6633 154.732 88.8869 153.231C88.1105 151.729 86.6613 149.917 84.5909 147.794C81.9513 145.102 80.1397 142.616 79.0528 140.442C78.0176 138.267 77.5 135.782 77.5 133.038C77.5 129.31 78.3281 126.41 79.9327 124.339C81.5372 122.268 83.9181 121.232 87.0236 121.232C90.0774 121.232 92.4065 122.268 93.9593 124.339C95.512 126.41 96.2884 129.361 96.2884 133.193V135.16H90.2327V132.623C90.2327 131.018 89.9739 129.827 89.4045 129.051C88.8869 128.326 88.0588 127.912 87.0236 127.912C84.9015 127.912 83.8146 129.413 83.8146 132.468C83.8146 134.177 84.2286 135.782 85.005 137.283C85.7814 138.785 87.2306 140.597 89.3528 142.72C92.0442 145.412 93.8558 147.898 94.8909 150.124C95.8744 152.35 96.3919 154.939 96.3919 157.89C96.3919 161.774 95.5638 164.777 93.9075 166.848C92.2512 168.919 89.8703 169.954 86.7648 169.954C83.6593 169.954 81.3302 168.971 79.7256 166.9Z" fill="#2259A0"/>
<path d="M100.067 121.854H117.458V128.636H106.433V141.166H115.18V147.949H106.433V162.499H117.458V169.281H100.067V121.854Z" fill="#2259A0"/>
<path d="M121.133 121.854H130.863C134.021 121.854 136.402 122.837 138.006 124.857C139.611 126.824 140.387 129.775 140.387 133.607V157.58C140.387 161.411 139.611 164.311 138.006 166.33C136.402 168.298 134.021 169.333 130.863 169.333H121.133V121.854ZM130.76 162.499C131.795 162.499 132.623 162.136 133.193 161.411C133.762 160.686 134.021 159.495 134.021 157.89V133.245C134.021 131.639 133.762 130.449 133.193 129.724C132.623 128.999 131.847 128.636 130.76 128.636H127.499V162.499H130.76Z" fill="#2259A0"/>
<path d="M153.999 121.854H160.366V169.281H153.999V121.854Z" fill="#2259A0"/>
<path d="M165.128 121.854H173.15L179.361 150.227H179.465V121.854H185.158V169.281H178.585L170.925 134.694H170.821V169.333H165.128V121.854Z" fill="#2259A0"/>
<path d="M201.41 166.9C199.806 164.828 198.978 161.877 198.978 158.046V121.854H205.344V158.563C205.344 160.169 205.603 161.359 206.172 162.084C206.741 162.809 207.518 163.172 208.605 163.172C209.692 163.172 210.468 162.809 211.037 162.084C211.607 161.359 211.865 160.169 211.865 158.563V121.854H218.025V158.046C218.025 161.877 217.197 164.828 215.592 166.9C213.988 168.971 211.607 170.006 208.501 170.006C205.396 169.954 203.015 168.971 201.41 166.9Z" fill="#2259A0"/>
<path d="M223.822 166.9C222.217 164.829 221.441 161.877 221.441 158.046V155.353H227.497V158.615C227.497 161.67 228.584 163.223 230.809 163.223C231.896 163.223 232.724 162.861 233.294 162.084C233.863 161.36 234.122 160.117 234.122 158.46C234.122 156.492 233.759 154.732 232.983 153.231C232.207 151.729 230.757 149.917 228.687 147.794C226.047 145.102 224.236 142.616 223.149 140.442C222.114 138.267 221.596 135.782 221.596 133.038C221.596 129.31 222.424 126.41 224.029 124.339C225.633 122.268 228.014 121.232 231.12 121.232C234.174 121.232 236.503 122.268 238.055 124.339C239.608 126.41 240.385 129.361 240.385 133.193V135.16H234.329V132.623C234.329 131.018 234.07 129.827 233.501 129.051C232.983 128.326 232.155 127.912 231.12 127.912C228.998 127.912 227.911 129.413 227.911 132.468C227.911 134.177 228.325 135.782 229.101 137.283C229.878 138.785 231.327 140.597 233.449 142.72C236.14 145.412 237.952 147.898 238.987 150.124C239.971 152.35 240.488 154.939 240.488 157.89C240.488 161.774 239.66 164.777 238.004 166.848C236.347 168.919 233.967 169.954 230.861 169.954C227.755 169.954 225.375 168.971 223.822 166.9Z" fill="#2259A0"/>
<path d="M248.873 121.854H257.517L264.142 169.281H257.776L256.637 159.858V160.013H249.391L248.252 169.281H242.352L248.873 121.854ZM255.861 153.593L253.014 130.138H252.911L250.116 153.593H255.861Z" fill="#2259A0"/>
</g>
</svg>
