<svg width="109" height="109" viewBox="0 0 109 109" fill="none" xmlns="http://www.w3.org/2000/svg">
<path d="M81.75 85.6558H78.2983C74.665 85.6558 71.2133 87.0637 68.67 89.6071L60.9037 97.2825C57.3612 100.78 51.5933 100.78 48.0508 97.2825L40.2846 89.6071C37.7412 87.0637 34.2442 85.6558 30.6562 85.6558H27.25C19.7108 85.6558 13.625 79.6154 13.625 72.1671V22.6175C13.625 15.1691 19.7108 9.12872 27.25 9.12872H81.75C89.2892 9.12872 95.375 15.1691 95.375 22.6175V72.1671C95.375 79.57 89.2892 85.6558 81.75 85.6558Z" stroke="white" stroke-width="3" stroke-miterlimit="10" stroke-linecap="round" stroke-linejoin="round"/>
<path d="M31.7917 41.6017C31.7917 37.3779 35.2434 33.9263 39.4672 33.9263C43.6909 33.9263 47.1426 37.3779 47.1426 41.6017C47.1426 50.14 35.0163 51.0484 32.3367 59.1779C31.7917 60.8584 33.1997 62.5388 34.9709 62.5388H47.1426M72.8484 62.4934V36.5604C72.8509 35.9866 72.6659 35.4276 72.3216 34.9686C71.9773 34.5095 71.4925 34.1754 70.9409 34.0171C70.3856 33.8603 69.7945 33.8859 69.2549 34.0903C68.7152 34.2948 68.2555 34.6671 67.9434 35.1525C64.6734 40.4209 61.1309 46.4159 58.0426 51.6842C57.543 52.5471 57.543 53.6825 58.0426 54.5454C58.5422 55.4084 59.4959 55.9534 60.5405 55.9534H77.2084" stroke="white" stroke-width="3" stroke-linecap="round" stroke-linejoin="round"/>
</svg>
