<svg width="109" height="109" viewBox="0 0 109 109" fill="none" xmlns="http://www.w3.org/2000/svg">
<path d="M43.1458 62.4479C43.1458 66.8533 46.552 70.3958 50.7303 70.3958H59.2687C62.902 70.3958 65.8541 67.3075 65.8541 63.4471C65.8541 59.3142 64.0374 57.8154 61.3578 56.8617L47.6874 52.0929C45.0078 51.1392 43.1912 49.6858 43.1912 45.5075C43.1912 41.6925 46.1433 38.5587 49.7766 38.5587H58.3149C62.4933 38.5587 65.8995 42.1012 65.8995 46.5067M54.4999 34.0625V74.9375" stroke="white" stroke-width="3" stroke-linecap="round" stroke-linejoin="round"/>
<path d="M99.9166 54.5C99.9166 79.57 79.5699 99.9167 54.4999 99.9167C29.4299 99.9167 9.08325 79.57 9.08325 54.5C9.08325 29.43 29.4299 9.08331 54.4999 9.08331M99.9166 27.25V9.08331M99.9166 9.08331H81.7499M99.9166 9.08331L77.2083 31.7916" stroke="white" stroke-width="3" stroke-linecap="round" stroke-linejoin="round"/>
</svg>
