<svg width="105" height="105" viewBox="0 0 105 105" fill="none" xmlns="http://www.w3.org/2000/svg">
<path d="M65.625 8.75V52.5C65.625 57.3125 61.6875 61.25 56.875 61.25H8.75V33.3375C11.9438 37.1437 16.8438 39.5062 22.2688 39.375C26.6875 39.2875 30.6688 37.5813 33.6438 34.7375C35 33.6 36.1375 32.1562 37.0125 30.5812C38.5875 27.9125 39.4625 24.7625 39.375 21.4812C39.2438 16.3625 36.9687 11.8562 33.425 8.75H65.625Z" stroke="white" stroke-width="3" stroke-linecap="round" stroke-linejoin="round"/>
<path d="M96.25 61.25V74.375C96.25 81.6375 90.3875 87.5 83.125 87.5H78.75C78.75 82.6875 74.8125 78.75 70 78.75C65.1875 78.75 61.25 82.6875 61.25 87.5H43.75C43.75 82.6875 39.8125 78.75 35 78.75C30.1875 78.75 26.25 82.6875 26.25 87.5H21.875C14.6125 87.5 8.75 81.6375 8.75 74.375V61.25H56.875C61.6875 61.25 65.625 57.3125 65.625 52.5V21.875H73.675C76.825 21.875 79.7125 23.5813 81.2875 26.2938L88.7688 39.375H83.125C80.7187 39.375 78.75 41.3437 78.75 43.75V56.875C78.75 59.2813 80.7187 61.25 83.125 61.25H96.25Z" stroke="white" stroke-width="3" stroke-linecap="round" stroke-linejoin="round"/>
<path d="M35 96.25C37.3206 96.25 39.5462 95.3281 41.1872 93.6872C42.8281 92.0462 43.75 89.8206 43.75 87.5C43.75 85.1794 42.8281 82.9538 41.1872 81.3128C39.5462 79.6719 37.3206 78.75 35 78.75C32.6794 78.75 30.4538 79.6719 28.8128 81.3128C27.1719 82.9538 26.25 85.1794 26.25 87.5C26.25 89.8206 27.1719 92.0462 28.8128 93.6872C30.4538 95.3281 32.6794 96.25 35 96.25ZM70 96.25C72.3206 96.25 74.5462 95.3281 76.1872 93.6872C77.8281 92.0462 78.75 89.8206 78.75 87.5C78.75 85.1794 77.8281 82.9538 76.1872 81.3128C74.5462 79.6719 72.3206 78.75 70 78.75C67.6794 78.75 65.4538 79.6719 63.8128 81.3128C62.1719 82.9538 61.25 85.1794 61.25 87.5C61.25 89.8206 62.1719 92.0462 63.8128 93.6872C65.4538 95.3281 67.6794 96.25 70 96.25ZM96.25 52.5V61.25H83.125C80.7187 61.25 78.75 59.2813 78.75 56.875V43.75C78.75 41.3437 80.7187 39.375 83.125 39.375H88.7688L96.25 52.5Z" stroke="white" stroke-width="3" stroke-linecap="round" stroke-linejoin="round"/>
<path d="M39.3749 21.4812C39.4624 24.7625 38.5875 27.9125 37.0125 30.5812C36.1375 32.1562 35 33.6 33.6437 34.7375C30.6687 37.5812 26.6875 39.2875 22.2687 39.375C16.8437 39.5062 11.9437 37.1437 8.74995 33.3375C8.13745 32.6812 7.61245 31.9375 7.1312 31.1937C5.42495 28.6125 4.46245 25.55 4.37495 22.2687C4.31008 19.6421 4.83899 17.0346 5.92225 14.6409C7.00551 12.2471 8.61517 10.1287 10.6312 8.44374C13.6062 5.99374 17.3687 4.46249 21.4812 4.37499C26.0749 4.28749 30.2749 5.95 33.425 8.75C36.9687 11.8562 39.2437 16.3625 39.3749 21.4812Z" stroke="white" stroke-width="3" stroke-miterlimit="10" stroke-linecap="round" stroke-linejoin="round"/>
<path d="M15.05 22.0063L19.4688 26.2063L28.6125 17.3688" stroke="white" stroke-width="3" stroke-linecap="round" stroke-linejoin="round"/>
</svg>
