<svg width="125" height="118" viewBox="0 0 125 118" fill="none" xmlns="http://www.w3.org/2000/svg">
<path d="M96.3541 46.7083V71.2916M62.5 71.2916C65.9533 71.2916 69.2652 69.9966 71.7071 67.6915C74.149 65.3864 75.5208 62.2599 75.5208 59C75.5208 55.74 74.149 52.6136 71.7071 50.3085C69.2652 48.0033 65.9533 46.7083 62.5 46.7083C59.0466 46.7083 55.7347 48.0033 53.2928 50.3085C50.851 52.6136 49.4791 55.74 49.4791 59C49.4791 62.2599 50.851 65.3864 53.2928 67.6915C55.7347 69.9966 59.0466 71.2916 62.5 71.2916ZM46.875 88.5C46.875 92.1875 45.7812 95.6783 43.8541 98.6283C42.018 101.541 39.4099 103.953 36.2866 105.625C33.1633 107.298 29.6324 108.174 26.0416 108.167C22.4508 108.174 18.9199 107.298 15.7966 105.625C12.6733 103.953 10.0652 101.541 8.22913 98.6283C6.24653 95.582 5.2006 92.0752 5.20829 88.5C5.20829 77.6341 14.5312 68.8333 26.0416 68.8333C37.552 68.8333 46.875 77.6341 46.875 88.5Z" stroke="white" stroke-width="3" stroke-miterlimit="10" stroke-linecap="round" stroke-linejoin="round"/>
<path d="M17.9219 88.5L23.0781 93.3675L34.1719 83.6816" stroke="white" stroke-width="1.5" stroke-linecap="round" stroke-linejoin="round"/>
<path d="M10 70.3875V33.375C10 12.8125 20.5 4 36.25 4H88.75C104.5 4 115 12.8125 115 33.375V68.625C115 89.1875 104.5 98 88.75 98H44.125" stroke="white" stroke-width="3" stroke-miterlimit="10" stroke-linecap="round" stroke-linejoin="round"/>
</svg>
