<svg width="129" height="61" viewBox="0 0 129 61" fill="none" xmlns="http://www.w3.org/2000/svg">
<path d="M125.83 11.4896C123.789 7.85948 120.88 5.0457 117.093 3.02221C113.307 1.0074 108.895 0 103.867 0H85.9333V31.7506L86.5326 31.6637C87.0363 31.5942 87.4705 31.2729 87.6963 30.8126L90.649 24.829C91.2135 23.674 92.8636 23.674 93.4281 24.829L96.3808 30.8126C96.6066 31.2729 97.0408 31.5856 97.5445 31.6637L98.2219 31.7593V11.5591H102.842C106.741 11.5591 109.798 12.636 112.022 14.7897C114.245 16.9435 115.356 19.9917 115.356 23.9345C115.356 27.8339 114.245 30.8474 112.022 32.9751C110.05 34.8683 107.41 35.9191 104.119 36.1276L100.228 39.914C99.8633 40.2701 99.6983 40.7825 99.7851 41.2862L100.914 47.8603C100.914 47.8864 100.923 47.9038 100.923 47.9298H103.867C108.852 47.9298 113.237 46.8964 117.024 44.8381C120.81 42.7799 123.728 39.9314 125.795 36.3013C127.853 32.6711 128.887 28.546 128.887 23.9258C128.887 19.2622 127.862 15.1197 125.83 11.4896Z" fill="#D1202D"/>
<path d="M91.3178 46.4014L88.3911 47.9385H95.6861L92.7594 46.4014C92.3078 46.1582 91.7694 46.1582 91.3178 46.4014Z" fill="#D1202D"/>
<path d="M0.929243 60.149H4.24673V60.9045H0V51.6555H0.929243V60.149Z" fill="#D1202D"/>
<path d="M15.0676 60.3922C14.3729 59.9927 13.8258 59.4282 13.4176 58.7161C13.0181 57.9953 12.8184 57.1876 12.8184 56.2757C12.8184 55.3639 13.0181 54.5562 13.4176 53.8354C13.8171 53.1146 14.3642 52.5588 15.0676 52.1593C15.7624 51.7598 16.544 51.5601 17.3951 51.5601C18.2549 51.5601 19.0365 51.7598 19.7399 52.1593C20.4347 52.5588 20.9818 53.1233 21.3813 53.8354C21.7808 54.5562 21.9805 55.3639 21.9805 56.2757C21.9805 57.1876 21.7808 57.9953 21.3813 58.7161C20.9818 59.4369 20.4347 59.9927 19.7399 60.3922C19.0452 60.7917 18.2635 60.9914 17.3951 60.9914C16.5353 60.9914 15.7624 60.7917 15.0676 60.3922ZM19.2449 59.7148C19.792 59.3935 20.2262 58.9419 20.5389 58.3427C20.8602 57.7434 21.0165 57.0574 21.0165 56.2757C21.0165 55.4941 20.8602 54.7994 20.5389 54.2088C20.2176 53.6183 19.792 53.1667 19.2449 52.8454C18.6978 52.524 18.0812 52.3677 17.3951 52.3677C16.709 52.3677 16.0924 52.524 15.5453 52.8454C14.9982 53.1667 14.5639 53.6183 14.2513 54.2088C13.93 54.7994 13.7737 55.4855 13.7737 56.2757C13.7737 57.0574 13.93 57.7521 14.2513 58.3427C14.5726 58.9419 14.9982 59.3935 15.5453 59.7148C16.0924 60.0361 16.709 60.1925 17.3951 60.1925C18.0812 60.1838 18.6978 60.0275 19.2449 59.7148Z" fill="#D1202D"/>
<path d="M38.6114 54.3563C38.3508 53.7484 37.9427 53.2708 37.4042 52.9234C36.8658 52.576 36.2231 52.4023 35.4936 52.4023C34.8075 52.4023 34.1909 52.5586 33.6438 52.88C33.0967 53.2013 32.6625 53.6529 32.3498 54.2347C32.0285 54.8253 31.8722 55.5027 31.8722 56.2756C31.8722 57.0485 32.0285 57.7346 32.3498 58.3252C32.6712 58.9157 33.0967 59.3673 33.6438 59.6886C34.1909 60.0099 34.8075 60.1663 35.4936 60.1663C36.1363 60.1663 36.7181 60.0273 37.2305 59.7494C37.7429 59.4715 38.1598 59.072 38.4724 58.5596C38.7851 58.0472 38.9674 57.4393 39.0109 56.7533H35.1202V55.9977H39.9835V56.6751C39.9401 57.4828 39.723 58.2209 39.3235 58.881C38.924 59.541 38.3943 60.0534 37.7255 60.4355C37.0568 60.8176 36.31 61 35.4849 61C34.6339 61 33.8523 60.8002 33.1575 60.4008C32.4627 60.0013 31.9156 59.4368 31.5074 58.7246C31.1079 58.0038 30.9082 57.1962 30.9082 56.2843C30.9082 55.3724 31.1079 54.5648 31.5074 53.8439C31.9069 53.1231 32.454 52.5673 33.1575 52.1678C33.8523 51.7683 34.6339 51.5686 35.4849 51.5686C36.475 51.5686 37.3347 51.8118 38.0816 52.3068C38.8198 52.8018 39.3582 53.4879 39.6969 54.3737H38.6114V54.3563Z" fill="#D1202D"/>
<path d="M50.2745 51.6555V60.9045H49.3452V51.6555H50.2745Z" fill="#D1202D"/>
<path d="M61.2432 60.6788C60.7829 60.4704 60.4181 60.1751 60.1489 59.793C59.8884 59.4109 59.7408 58.994 59.7234 58.525H60.7047C60.7482 58.9766 60.9479 59.3674 61.304 59.7061C61.66 60.0448 62.1724 60.2185 62.8498 60.2185C63.4751 60.2185 63.9701 60.0535 64.3349 59.7322C64.6996 59.4109 64.882 59.0027 64.882 58.5077C64.882 58.1082 64.7778 57.7955 64.578 57.5524C64.3783 57.3092 64.1264 57.1268 63.8225 57.0139C63.5185 56.8923 63.1103 56.7621 62.5806 56.6231C61.964 56.4581 61.4777 56.2931 61.1129 56.1368C60.7482 55.9805 60.4442 55.7286 60.1837 55.3986C59.9318 55.0599 59.8015 54.6083 59.8015 54.0351C59.8015 53.5575 59.9231 53.132 60.175 52.7585C60.4182 52.3851 60.7742 52.0898 61.2171 51.8814C61.6687 51.673 62.1811 51.5601 62.763 51.5601C63.614 51.5601 64.3088 51.7685 64.8299 52.1853C65.351 52.6022 65.6549 53.1406 65.7331 53.8093H64.7257C64.6649 53.4272 64.4564 53.0972 64.1004 52.7933C63.7443 52.498 63.2754 52.3503 62.6761 52.3503C62.1203 52.3503 61.66 52.498 61.2866 52.7933C60.9132 53.0885 60.7308 53.488 60.7308 54.0004C60.7308 54.3912 60.835 54.7038 61.0347 54.9383C61.2345 55.1728 61.495 55.3552 61.799 55.4768C62.1029 55.5984 62.5111 55.7286 63.0322 55.8763C63.6314 56.0413 64.1177 56.2063 64.4912 56.3713C64.8646 56.5363 65.1773 56.7794 65.4291 57.1181C65.681 57.4568 65.8112 57.8998 65.8112 58.4642C65.8112 58.8985 65.6983 59.3066 65.4638 59.6974C65.2381 60.0882 64.8994 60.4009 64.4478 60.6354C63.9962 60.8699 63.4577 60.9914 62.8324 60.9914C62.2419 60.9914 61.7121 60.8872 61.2432 60.6788Z" fill="#D1202D"/>
<path d="M80.6965 51.6555V52.4198H78.1345V60.8958H77.2053V52.4198H74.626V51.6555H80.6965Z" fill="#D1202D"/>
<path d="M90.7618 51.6555V60.9045H89.8325V51.6555H90.7618Z" fill="#D1202D"/>
<path d="M100.706 53.8354C101.105 53.1146 101.644 52.5588 102.33 52.1593C103.016 51.7598 103.789 51.5601 104.631 51.5601C105.664 51.5601 106.55 51.8032 107.28 52.2982C108.018 52.7846 108.548 53.4793 108.886 54.3652H107.801C107.54 53.7399 107.132 53.2535 106.594 52.8975C106.055 52.5414 105.395 52.3677 104.631 52.3677C103.954 52.3677 103.346 52.524 102.799 52.8454C102.26 53.1667 101.835 53.6183 101.522 54.2175C101.209 54.8167 101.062 55.5028 101.062 56.2844C101.062 57.066 101.218 57.7608 101.522 58.3513C101.835 58.9419 102.26 59.3935 102.799 59.7148C103.337 60.0361 103.954 60.1925 104.631 60.1925C105.395 60.1925 106.055 60.0188 106.594 59.6714C107.132 59.324 107.54 58.8377 107.801 58.2211H108.886C108.548 59.1069 108.009 59.7843 107.271 60.2706C106.533 60.757 105.647 61.0001 104.622 61.0001C103.78 61.0001 103.007 60.8004 102.321 60.4009C101.635 60.0014 101.088 59.4456 100.697 58.7248C100.297 58.0127 100.098 57.1963 100.098 56.2931C100.115 55.3639 100.315 54.5475 100.706 53.8354Z" fill="#D1202D"/>
<path d="M119.603 60.6788C119.143 60.4704 118.778 60.1751 118.509 59.793C118.248 59.4109 118.101 58.994 118.083 58.525H119.065C119.108 58.9766 119.308 59.3674 119.664 59.7061C120.02 60.0448 120.532 60.2185 121.21 60.2185C121.835 60.2185 122.33 60.0535 122.695 59.7322C123.059 59.4109 123.242 59.0027 123.242 58.5077C123.242 58.1082 123.138 57.7955 122.938 57.5524C122.738 57.3092 122.486 57.1268 122.182 57.0139C121.878 56.8923 121.47 56.7621 120.94 56.6231C120.324 56.4581 119.838 56.2931 119.473 56.1368C119.108 55.9805 118.804 55.7286 118.544 55.3986C118.292 55.0599 118.161 54.6083 118.161 54.0351C118.161 53.5575 118.283 53.132 118.535 52.7585C118.778 52.3851 119.134 52.0898 119.577 51.8814C120.029 51.673 120.541 51.5601 121.123 51.5601C121.974 51.5601 122.669 51.7685 123.19 52.1853C123.711 52.6022 124.015 53.1406 124.093 53.8093H123.086C123.025 53.4272 122.816 53.0972 122.46 52.7933C122.104 52.498 121.635 52.3503 121.036 52.3503C120.48 52.3503 120.02 52.498 119.646 52.7933C119.273 53.0885 119.091 53.488 119.091 54.0004C119.091 54.3912 119.195 54.7038 119.395 54.9383C119.594 55.1728 119.855 55.3552 120.159 55.4768C120.463 55.5984 120.871 55.7286 121.392 55.8763C121.991 56.0413 122.478 56.2063 122.851 56.3713C123.224 56.5363 123.537 56.7794 123.789 57.1181C124.041 57.4568 124.171 57.8998 124.171 58.4642C124.171 58.8985 124.058 59.3066 123.824 59.6974C123.598 60.0882 123.259 60.4009 122.808 60.6354C122.356 60.8699 121.818 60.9914 121.192 60.9914C120.602 60.9914 120.063 60.8872 119.603 60.6788Z" fill="#D1202D"/>
<path d="M92.4034 26.1403L95.6601 32.7405C95.7209 32.8621 95.8338 32.9403 95.964 32.9663L103.25 34.0259C103.58 34.078 103.719 34.4861 103.476 34.7206L98.2046 39.8532C98.1091 39.9487 98.0657 40.079 98.0917 40.2092L99.3336 47.4608C99.3944 47.7908 99.0383 48.0427 98.7431 47.8863L92.2297 44.4646C92.1081 44.4038 91.9691 44.4038 91.8476 44.4646L85.3342 47.8863C85.0389 48.0427 84.6915 47.7908 84.7436 47.4608L85.9855 40.2092C86.0116 40.079 85.9681 39.94 85.8726 39.8532L80.6011 34.7206C80.3579 34.4861 80.4969 34.078 80.8269 34.0259L88.1132 32.9663C88.2435 32.949 88.3564 32.8621 88.4172 32.7405L91.6739 26.1403C91.8215 25.8364 92.2557 25.8364 92.4034 26.1403Z" fill="#244088"/>
<path d="M37.7255 48.0253L25.5411 35.841H12.1757V0H0V35.841V48.0253V48.0774H12.1757V48.0253H37.7255Z" fill="#D1202D"/>
<path d="M67.496 0V0.017369L53.9568 20.8255L40.4003 0.00868451V0H28.2246V5.17597V25.5411V30.7171L40.4003 42.9015V37.7255V22.3366L46.6879 31.9937L46.6792 32.0111L50.6828 38.1597H57.2222L61.2257 32.0111L61.2171 31.9937L67.496 22.3452V48.0774H79.6803V0H67.496Z" fill="#D1202D"/>
</svg>
