<svg width="96" height="45" viewBox="0 0 96 45" fill="none" xmlns="http://www.w3.org/2000/svg">
<path d="M92.825 8.47593C91.3194 5.79797 89.1732 3.72223 86.3799 2.2295C83.5867 0.743165 80.3321 0 76.6227 0H63.3931V23.4225L63.8351 23.3585C64.2067 23.3072 64.527 23.0702 64.6936 22.7306L66.8719 18.3165C67.2883 17.4644 68.5055 17.4644 68.922 18.3165L71.1002 22.7306C71.2668 23.0702 71.5871 23.3008 71.9587 23.3585L72.4584 23.4289V8.52718H75.8667C78.7433 8.52718 80.9984 9.3216 82.6385 10.9104C84.2786 12.4993 85.0986 14.748 85.0986 17.6566C85.0986 20.5331 84.2786 22.7562 82.6385 24.3259C81.1842 25.7225 79.2366 26.4977 76.8085 26.6514L73.9383 29.4447C73.6692 29.7074 73.5475 30.0854 73.6116 30.457L74.4444 35.3068C74.4444 35.326 74.4509 35.3388 74.4509 35.358H76.6227C80.3001 35.358 83.5354 34.5956 86.3287 33.0773C89.122 31.5589 91.2746 29.4575 92.7994 26.7796C94.3177 24.1016 95.0801 21.0585 95.0801 17.6502C95.0801 14.2098 94.3241 11.1539 92.825 8.47593Z" fill="white"/>
<path d="M67.3651 34.2305L65.2061 35.3645H70.5876L68.4286 34.2305C68.0954 34.0511 67.6982 34.0511 67.3651 34.2305Z" fill="white"/>
<path d="M0.685506 44.3721H3.13283V44.9295H0V38.1064H0.685506V44.3721Z" fill="white"/>
<path d="M11.1154 44.5516C10.6028 44.2569 10.1992 43.8405 9.89811 43.3152C9.60341 42.7834 9.45605 42.1876 9.45605 41.5149C9.45605 40.8422 9.60341 40.2464 9.89811 39.7147C10.1928 39.1829 10.5964 38.7729 11.1154 38.4782C11.6279 38.1835 12.2045 38.0361 12.8323 38.0361C13.4666 38.0361 14.0432 38.1835 14.5621 38.4782C15.0746 38.7729 15.4783 39.1893 15.773 39.7147C16.0677 40.2464 16.215 40.8422 16.215 41.5149C16.215 42.1876 16.0677 42.7834 15.773 43.3152C15.4783 43.8469 15.0746 44.2569 14.5621 44.5516C14.0496 44.8463 13.473 44.9937 12.8323 44.9937C12.1981 44.9937 11.6279 44.8463 11.1154 44.5516ZM14.1969 44.0519C14.6006 43.8149 14.9209 43.4817 15.1515 43.0397C15.3886 42.5976 15.5039 42.0915 15.5039 41.5149C15.5039 40.9383 15.3886 40.4258 15.1515 39.9901C14.9145 39.5545 14.6006 39.2214 14.1969 38.9843C13.7933 38.7473 13.3385 38.6319 12.8323 38.6319C12.3262 38.6319 11.8713 38.7473 11.4677 38.9843C11.0641 39.2214 10.7438 39.5545 10.5131 39.9901C10.2761 40.4258 10.1608 40.9319 10.1608 41.5149C10.1608 42.0915 10.2761 42.604 10.5131 43.0397C10.7502 43.4817 11.0641 43.8149 11.4677 44.0519C11.8713 44.289 12.3262 44.4043 12.8323 44.4043C13.3385 44.3979 13.7933 44.2826 14.1969 44.0519Z" fill="white"/>
<path d="M28.4839 40.099C28.2917 39.6505 27.9906 39.2982 27.5934 39.0419C27.1962 38.7856 26.7221 38.6575 26.184 38.6575C25.6778 38.6575 25.223 38.7728 24.8193 39.0099C24.4157 39.2469 24.0954 39.5801 23.8648 40.0093C23.6277 40.445 23.5124 40.9447 23.5124 41.5149C23.5124 42.085 23.6277 42.5912 23.8648 43.0268C24.1018 43.4625 24.4157 43.7956 24.8193 44.0326C25.223 44.2697 25.6778 44.385 26.184 44.385C26.658 44.385 27.0873 44.2825 27.4653 44.0775C27.8433 43.8725 28.1508 43.5778 28.3814 43.1998C28.6121 42.8218 28.7466 42.3733 28.7786 41.8672H25.9085V41.3098H29.4962V41.8096C29.4641 42.4054 29.304 42.9499 29.0093 43.4368C28.7146 43.9237 28.3238 44.3017 27.8304 44.5836C27.3371 44.8655 26.7862 45 26.1775 45C25.5497 45 24.9731 44.8527 24.4606 44.558C23.9481 44.2633 23.5444 43.8469 23.2433 43.3215C22.9486 42.7898 22.8013 42.194 22.8013 41.5213C22.8013 40.8486 22.9486 40.2528 23.2433 39.721C23.538 39.1893 23.9416 38.7792 24.4606 38.4845C24.9731 38.1898 25.5497 38.0425 26.1775 38.0425C26.9079 38.0425 27.5422 38.2219 28.0931 38.587C28.6377 38.9522 29.0349 39.4583 29.2847 40.1118H28.4839V40.099Z" fill="white"/>
<path d="M37.0879 38.1064V44.9295H36.4023V38.1064H37.0879Z" fill="white"/>
<path d="M45.1793 44.7631C44.8397 44.6093 44.5706 44.3915 44.372 44.1096C44.1798 43.8277 44.0709 43.5202 44.0581 43.1742H44.7821C44.8141 43.5074 44.9614 43.7957 45.2241 44.0455C45.4868 44.2954 45.8648 44.4235 46.3645 44.4235C46.8258 44.4235 47.1909 44.3018 47.46 44.0647C47.7291 43.8277 47.8636 43.5266 47.8636 43.1614C47.8636 42.8667 47.7867 42.6361 47.6394 42.4567C47.492 42.2773 47.3063 42.1428 47.082 42.0595C46.8578 41.9698 46.5567 41.8737 46.1659 41.7712C45.711 41.6495 45.3522 41.5277 45.0832 41.4124C44.8141 41.2971 44.5899 41.1113 44.3977 40.8678C44.2119 40.618 44.1158 40.2848 44.1158 39.862C44.1158 39.5097 44.2055 39.1957 44.3912 38.9202C44.5706 38.6448 44.8333 38.4269 45.16 38.2732C45.4932 38.1194 45.8712 38.0361 46.3004 38.0361C46.9283 38.0361 47.4408 38.1899 47.8252 38.4974C48.2096 38.8049 48.4338 39.2021 48.4915 39.6954H47.7483C47.7035 39.4135 47.5497 39.1701 47.287 38.9459C47.0244 38.728 46.6784 38.6191 46.2363 38.6191C45.8263 38.6191 45.4868 38.728 45.2113 38.9459C44.9358 39.1637 44.8013 39.4584 44.8013 39.8364C44.8013 40.1247 44.8781 40.3553 45.0255 40.5283C45.1729 40.7013 45.365 40.8358 45.5893 40.9255C45.8135 41.0152 46.1146 41.1113 46.499 41.2202C46.9411 41.3419 47.2998 41.4637 47.5753 41.5854C47.8508 41.7071 48.0814 41.8865 48.2672 42.1364C48.453 42.3862 48.5491 42.7129 48.5491 43.1294C48.5491 43.4497 48.4658 43.7508 48.2929 44.0391C48.1263 44.3274 47.8764 44.558 47.5433 44.731C47.2101 44.904 46.8129 44.9937 46.3517 44.9937C45.916 44.9937 45.5252 44.9168 45.1793 44.7631Z" fill="white"/>
<path d="M59.53 38.1064V38.6702H57.64V44.9231H56.9545V38.6702H55.0518V38.1064H59.53Z" fill="white"/>
<path d="M66.9555 38.1064V44.9295H66.27V38.1064H66.9555Z" fill="white"/>
<path d="M74.2907 39.7147C74.5855 39.1829 74.9827 38.7729 75.4888 38.4782C75.9949 38.1835 76.5651 38.0361 77.1865 38.0361C77.9489 38.0361 78.6024 38.2155 79.1405 38.5807C79.6851 38.9395 80.0759 39.452 80.3258 40.1055H79.5249C79.3327 39.6442 79.0316 39.2854 78.6344 39.0227C78.2372 38.7601 77.7503 38.6319 77.1865 38.6319C76.6868 38.6319 76.2384 38.7473 75.8347 38.9843C75.4375 39.2214 75.1236 39.5545 74.893 39.9966C74.6623 40.4386 74.5534 40.9447 74.5534 41.5213C74.5534 42.0979 74.6687 42.6104 74.893 43.0461C75.1236 43.4817 75.4375 43.8149 75.8347 44.0519C76.2319 44.289 76.6868 44.4043 77.1865 44.4043C77.7503 44.4043 78.2372 44.2762 78.6344 44.0199C79.0316 43.7636 79.3327 43.4049 79.5249 42.95H80.3258C80.0759 43.6035 79.6787 44.1032 79.1341 44.462C78.5896 44.8207 77.9361 45.0001 77.1801 45.0001C76.5587 45.0001 75.9885 44.8528 75.4824 44.558C74.9763 44.2633 74.5726 43.8533 74.2843 43.3216C73.9896 42.7962 73.8423 42.194 73.8423 41.5277C73.8551 40.8422 74.0025 40.24 74.2907 39.7147Z" fill="white"/>
<path d="M88.2315 44.7631C87.892 44.6093 87.6229 44.3915 87.4243 44.1096C87.2321 43.8277 87.1232 43.5202 87.1104 43.1742H87.8343C87.8663 43.5074 88.0137 43.7957 88.2764 44.0455C88.539 44.2954 88.917 44.4235 89.4167 44.4235C89.878 44.4235 90.2432 44.3018 90.5123 44.0647C90.7813 43.8277 90.9159 43.5266 90.9159 43.1614C90.9159 42.8667 90.839 42.6361 90.6916 42.4567C90.5443 42.2773 90.3585 42.1428 90.1343 42.0595C89.91 41.9698 89.6089 41.8737 89.2181 41.7712C88.7633 41.6495 88.4045 41.5277 88.1354 41.4124C87.8663 41.2971 87.6421 41.1113 87.4499 40.8678C87.2641 40.618 87.168 40.2848 87.168 39.862C87.168 39.5097 87.2577 39.1957 87.4435 38.9202C87.6229 38.6448 87.8856 38.4269 88.2123 38.2732C88.5454 38.1194 88.9234 38.0361 89.3527 38.0361C89.9805 38.0361 90.493 38.1899 90.8774 38.4974C91.2618 38.8049 91.4861 39.2021 91.5437 39.6954H90.8006C90.7557 39.4135 90.6019 39.1701 90.3393 38.9459C90.0766 38.728 89.7307 38.6191 89.2886 38.6191C88.8786 38.6191 88.539 38.728 88.2635 38.9459C87.9881 39.1637 87.8535 39.4584 87.8535 39.8364C87.8535 40.1247 87.9304 40.3553 88.0778 40.5283C88.2251 40.7013 88.4173 40.8358 88.6415 40.9255C88.8658 41.0152 89.1669 41.1113 89.5513 41.2202C89.9933 41.3419 90.3521 41.4637 90.6276 41.5854C90.9031 41.7071 91.1337 41.8865 91.3195 42.1364C91.5053 42.3862 91.6014 42.7129 91.6014 43.1294C91.6014 43.4497 91.5181 43.7508 91.3451 44.0391C91.1785 44.3274 90.9287 44.558 90.5955 44.731C90.2624 44.904 89.8652 44.9937 89.4039 44.9937C88.9683 44.9937 88.5711 44.9168 88.2315 44.7631Z" fill="white"/>
<path d="M68.1665 19.2839L70.569 24.1529C70.6138 24.2426 70.6971 24.3003 70.7932 24.3195L76.1684 25.1011C76.4118 25.1395 76.5143 25.4406 76.3349 25.6136L72.4461 29.3999C72.3757 29.4704 72.3436 29.5665 72.3628 29.6626L73.279 35.0121C73.3238 35.2555 73.0612 35.4413 72.8433 35.326L68.0384 32.8018C67.9487 32.757 67.8462 32.757 67.7565 32.8018L62.9515 35.326C62.7337 35.4413 62.4775 35.2555 62.5159 35.0121L63.432 29.6626C63.4513 29.5665 63.4192 29.464 63.3487 29.3999L59.4599 25.6136C59.2806 25.4406 59.3831 25.1395 59.6265 25.1011L65.0017 24.3195C65.0977 24.3067 65.181 24.2426 65.2259 24.1529L67.6284 19.2839C67.7373 19.0597 68.0576 19.0597 68.1665 19.2839Z" fill="white"/>
<path d="M27.8303 35.4285L18.8418 26.44H8.98205V0H0V26.44V35.4285V35.4669H8.98205V35.4285H27.8303Z" fill="white"/>
<path d="M49.7919 0V0.0128132L39.804 15.363L29.8033 0.0064066V0H20.8213V3.81833V18.8418V22.6601L29.8033 31.6486V27.8303V16.4778L34.4417 23.6019L34.4353 23.6147L37.3888 28.1506H42.2129L45.1664 23.6147L45.16 23.6019L49.7919 16.4842V35.4669H58.7804V0H49.7919Z" fill="white"/>
</svg>
