<svg width="173" height="84" viewBox="0 0 173 84" fill="none" xmlns="http://www.w3.org/2000/svg">
<mask id="path-1-inside-1_1_347" fill="white">
<path d="M146.864 76.125C144.784 76.125 142.79 75.2953 141.319 73.8185C139.849 72.3416 139.023 70.3386 139.023 68.25C139.023 66.1614 139.849 64.1584 141.319 62.6815C142.79 61.2047 144.784 60.375 146.864 60.375C148.943 60.375 150.938 61.2047 152.408 62.6815C153.878 64.1584 154.705 66.1614 154.705 68.25C154.705 70.3386 153.878 72.3416 152.408 73.8185C150.938 75.2953 148.943 76.125 146.864 76.125ZM154.705 28.875L162.428 38.7693C163.453 40.0825 162.518 42 160.852 42H143.636C142.532 42 141.636 41.1046 141.636 40V28.875M84.1364 76.125C82.0568 76.125 80.0625 75.2953 78.592 73.8185C77.1215 72.3416 76.2955 70.3386 76.2955 68.25C76.2955 66.1614 77.1215 64.1584 78.592 62.6815C80.0625 61.2047 82.0568 60.375 84.1364 60.375C86.2159 60.375 88.2103 61.2047 89.6807 62.6815C91.1512 64.1584 91.9773 66.1614 91.9773 68.25C91.9773 70.3386 91.1512 72.3416 89.6807 73.8185C88.2103 75.2953 86.2159 76.125 84.1364 76.125ZM157.918 21.8033C157.541 21.2978 156.947 21 156.316 21H143.636C142.532 21 141.636 20.1046 141.636 19V2C141.636 0.89543 140.741 0 139.636 0H68.4545C62.6523 0 58 4.6725 58 10.5V66.25C58 67.3546 58.8954 68.25 60 68.25H66.4545C67.5591 68.25 68.4415 69.149 68.5808 70.2448C69.0182 73.6862 70.5788 76.9074 73.0476 79.3869C75.9886 82.3406 79.9773 84 84.1364 84C88.2954 84 92.2842 82.3406 95.2251 79.3869C97.6939 76.9074 99.2545 73.6862 99.692 70.2448C99.8312 69.149 100.714 68.25 101.818 68.25H129.182C130.286 68.25 131.169 69.149 131.308 70.2448C131.745 73.6862 133.306 76.9074 135.775 79.3869C138.716 82.3406 142.705 84 146.864 84C151.023 84 155.011 82.3406 157.952 79.3869C160.421 76.9074 161.982 73.6862 162.419 70.2448C162.559 69.149 163.441 68.25 164.545 68.25H171C172.105 68.25 173 67.3546 173 66.25V42.6644C173 42.233 172.861 41.8133 172.602 41.4677L157.918 21.8033Z"/>
</mask>
<path d="M146.864 60.375V57.375V60.375ZM84.1364 60.375V57.375V60.375ZM84.1364 84V87V84ZM135.775 79.3869L137.901 77.2702L135.775 79.3869ZM146.864 84V87V84ZM172.602 41.4677L170.199 43.2627L172.602 41.4677ZM162.419 70.2448L159.443 69.8665L162.419 70.2448ZM99.692 70.2448L96.7159 69.8665L99.692 70.2448ZM131.308 70.2448L128.332 70.623L131.308 70.2448ZM157.918 21.8033L160.322 20.0083L157.918 21.8033ZM162.428 38.7693L164.793 36.9234L162.428 38.7693ZM146.864 73.125C145.584 73.125 144.354 72.6146 143.445 71.7017L139.193 75.9352C141.225 77.9761 143.984 79.125 146.864 79.125V73.125ZM143.445 71.7017C142.536 70.7885 142.023 69.5471 142.023 68.25H136.023C136.023 71.13 137.162 73.8947 139.193 75.9352L143.445 71.7017ZM142.023 68.25C142.023 66.9529 142.536 65.7115 143.445 64.7982L139.193 60.5648C137.162 62.6053 136.023 65.37 136.023 68.25H142.023ZM143.445 64.7982C144.354 63.8854 145.584 63.375 146.864 63.375V57.375C143.984 57.375 141.225 58.5239 139.193 60.5648L143.445 64.7982ZM146.864 63.375C148.143 63.375 149.373 63.8854 150.282 64.7982L154.534 60.5648C152.502 58.5239 149.743 57.375 146.864 57.375V63.375ZM150.282 64.7982C151.191 65.7115 151.705 66.9529 151.705 68.25H157.705C157.705 65.37 156.566 62.6053 154.534 60.5648L150.282 64.7982ZM151.705 68.25C151.705 69.5471 151.191 70.7885 150.282 71.7017L154.534 75.9352C156.566 73.8947 157.705 71.1301 157.705 68.25H151.705ZM150.282 71.7017C149.373 72.6146 148.143 73.125 146.864 73.125V79.125C149.743 79.125 152.502 77.9761 154.534 75.9352L150.282 71.7017ZM152.34 30.721L160.063 40.6153L164.793 36.9234L157.069 27.029L152.34 30.721ZM160.852 39H143.636V45H160.852V39ZM144.636 40V28.875H138.636V40H144.636ZM84.1364 73.125C82.8567 73.125 81.6268 72.6146 80.7179 71.7017L76.4661 75.9352C78.4981 77.9761 81.257 79.125 84.1364 79.125V73.125ZM80.7179 71.7017C79.8086 70.7885 79.2955 69.5471 79.2955 68.25H73.2955C73.2955 71.13 74.4345 73.8947 76.4661 75.9352L80.7179 71.7017ZM79.2955 68.25C79.2955 66.9529 79.8086 65.7115 80.7179 64.7982L76.4661 60.5648C74.4345 62.6053 73.2955 65.37 73.2955 68.25H79.2955ZM80.7179 64.7982C81.6268 63.8854 82.8567 63.375 84.1364 63.375V57.375C81.257 57.375 78.4981 58.5239 76.4661 60.5648L80.7179 64.7982ZM84.1364 63.375C85.416 63.375 86.646 63.8854 87.5548 64.7982L91.8066 60.5648C89.7746 58.5239 87.0158 57.375 84.1364 57.375V63.375ZM87.5548 64.7982C88.4641 65.7115 88.9773 66.9529 88.9773 68.25H94.9773C94.9773 65.37 93.8383 62.6053 91.8066 60.5648L87.5548 64.7982ZM88.9773 68.25C88.9773 69.5471 88.4641 70.7885 87.5548 71.7017L91.8066 75.9352C93.8383 73.8947 94.9773 71.13 94.9773 68.25H88.9773ZM87.5548 71.7017C86.6459 72.6146 85.416 73.125 84.1364 73.125V79.125C87.0158 79.125 89.7746 77.9761 91.8066 75.9352L87.5548 71.7017ZM156.316 18H143.636V24H156.316V18ZM144.636 19V2H138.636V19H144.636ZM139.636 -3H68.4545V3H139.636V-3ZM68.4545 -3C60.9832 -3 55 3.02793 55 10.5H61C61 6.31707 64.3214 3 68.4545 3V-3ZM55 10.5V66.25H61V10.5H55ZM60 71.25H66.4545V65.25H60V71.25ZM65.6047 70.623C66.1251 74.7169 67.9817 78.5508 70.9217 81.5036L75.1736 77.2702C73.176 75.2639 71.9113 72.6555 71.5568 69.8665L65.6047 70.623ZM70.9217 81.5036C74.4242 85.0214 79.1774 87 84.1364 87V81C80.7771 81 77.5529 79.6599 75.1736 77.2702L70.9217 81.5036ZM84.1364 87C89.0953 87 93.8485 85.0214 97.351 81.5036L93.0992 77.2702C90.7199 79.6599 87.4956 81 84.1364 81V87ZM97.351 81.5036C100.291 78.5508 102.148 74.7169 102.668 70.623L96.7159 69.8665C96.3614 72.6555 95.0968 75.2639 93.0992 77.2702L97.351 81.5036ZM101.818 71.25H129.182V65.25H101.818V71.25ZM128.332 70.623C128.852 74.7169 130.709 78.5508 133.649 81.5036L137.901 77.2702C135.903 75.2639 134.639 72.6555 134.284 69.8665L128.332 70.623ZM133.649 81.5036C137.152 85.0214 141.905 87 146.864 87V81C143.504 81 140.28 79.6599 137.901 77.2702L133.649 81.5036ZM146.864 87C151.823 87 156.576 85.0214 160.078 81.5036L155.826 77.2702C153.447 79.6599 150.223 81 146.864 81V87ZM160.078 81.5036C163.018 78.5508 164.875 74.7169 165.395 70.623L159.443 69.8665C159.089 72.6555 157.824 75.2639 155.826 77.2702L160.078 81.5036ZM164.545 71.25H171V65.25H164.545V71.25ZM176 66.25V42.6644H170V66.25H176ZM175.006 39.6727L160.322 20.0083L155.514 23.5983L170.199 43.2627L175.006 39.6727ZM176 42.6644C176 41.5861 175.651 40.5367 175.006 39.6727L170.199 43.2627C170.07 43.0899 170 42.88 170 42.6644H176ZM165.395 70.623C165.379 70.7517 165.32 70.8834 165.2 70.9987C165.069 71.1243 164.838 71.25 164.545 71.25V65.25C161.703 65.25 159.743 67.5093 159.443 69.8665L165.395 70.623ZM102.668 70.623C102.652 70.7517 102.593 70.8834 102.473 70.9987C102.342 71.1243 102.111 71.25 101.818 71.25V65.25C98.9756 65.25 97.0155 67.5093 96.7159 69.8665L102.668 70.623ZM66.4545 71.25C66.1619 71.25 65.9306 71.1243 65.8 70.9986C65.6802 70.8834 65.6211 70.7517 65.6047 70.623L71.5568 69.8665C71.2572 67.5093 69.2971 65.25 66.4545 65.25V71.25ZM171 71.25C173.761 71.25 176 69.0114 176 66.25H170C170 65.6977 170.448 65.25 171 65.25V71.25ZM55 66.25C55 69.0114 57.2386 71.25 60 71.25V65.25C60.5523 65.25 61 65.6977 61 66.25H55ZM144.636 2C144.636 -0.761424 142.398 -3 139.636 -3V3C139.084 3 138.636 2.55228 138.636 2H144.636ZM143.636 39C144.189 39 144.636 39.4477 144.636 40H138.636C138.636 42.7614 140.875 45 143.636 45V39ZM143.636 18C144.189 18 144.636 18.4477 144.636 19H138.636C138.636 21.7614 140.875 24 143.636 24V18ZM129.182 71.25C128.889 71.25 128.658 71.1243 128.527 70.9986C128.407 70.8834 128.348 70.7517 128.332 70.623L134.284 69.8665C133.984 67.5093 132.024 65.25 129.182 65.25V71.25ZM156.316 24C156 24 155.703 23.8511 155.514 23.5983L160.322 20.0083C159.378 18.7444 157.893 18 156.316 18V24ZM160.063 40.6153C159.551 39.9587 160.019 39 160.852 39V45C165.016 45 167.356 40.2064 164.793 36.9234L160.063 40.6153Z" fill="#244088" mask="url(#path-1-inside-1_1_347)"/>
<rect x="14" y="18" width="35" height="3" rx="1.5" fill="#244088"/>
<rect x="8" y="32" width="35" height="3" rx="1.5" fill="#244088"/>
<rect y="46" width="35" height="3" rx="1.5" fill="#244088"/>
</svg>
